<?xml version="1.0" encoding="UTF-8" ?>
<!DOCTYPE svg PUBLIC "-//W3C//DTD SVG 1.1//EN" "http://www.w3.org/Graphics/SVG/1.1/DTD/svg11.dtd">
<svg width="219pt" height="224pt" viewBox="0 0 219 224" version="1.1" xmlns="http://www.w3.org/2000/svg">
<path fill="#f87d06" d=" M 0.00 0.00 L 219.00 0.00 L 219.00 224.00 L 0.00 224.00 L 0.00 0.00 Z" />
<path fill="#fafdfb" d=" M 50.79 17.70 C 57.74 16.03 65.79 15.74 71.91 19.99 C 77.05 23.01 81.25 27.98 82.31 33.96 C 82.86 37.92 82.86 42.01 82.03 45.93 C 81.00 50.21 77.27 53.07 75.63 57.05 C 75.43 61.72 77.61 66.06 78.62 70.53 C 75.72 70.39 72.51 70.67 70.01 68.89 C 67.51 67.01 66.03 64.14 63.75 62.02 C 59.43 61.21 54.84 62.11 50.66 60.46 C 45.24 58.41 39.78 55.14 37.17 49.73 C 33.12 42.37 33.43 32.47 38.94 25.92 C 42.11 22.27 45.88 18.69 50.79 17.70 Z" />
<path fill="#233f62" d=" M 45.22 28.49 C 53.97 26.80 62.99 27.71 71.85 27.94 C 71.76 29.16 71.67 30.38 71.59 31.60 C 63.11 31.92 54.63 31.76 46.15 31.74 C 45.92 30.93 45.45 29.30 45.22 28.49 Z" />
<path fill="#233f62" d=" M 46.11 36.26 C 54.58 36.22 63.06 36.11 71.53 36.35 C 71.70 37.09 72.04 38.58 72.21 39.32 C 69.21 40.17 66.11 40.59 62.99 40.42 C 57.07 40.21 51.05 40.99 45.24 39.46 C 45.46 38.66 45.89 37.06 46.11 36.26 Z" />
<path fill="#233f62" d=" M 101.76 44.93 C 107.37 43.58 113.92 43.22 118.66 47.11 C 125.94 50.80 129.34 59.20 129.51 66.99 C 129.59 71.67 129.69 76.35 129.45 81.03 C 129.28 85.18 127.05 88.89 126.64 93.00 C 126.93 96.27 130.92 97.01 133.24 98.56 C 130.41 98.81 127.28 99.86 124.61 98.38 C 122.16 96.89 120.98 94.13 119.52 91.79 C 122.42 84.99 124.27 77.43 123.26 70.02 C 122.66 65.24 119.18 61.68 116.17 58.21 C 112.61 60.47 108.99 62.86 104.82 63.80 C 100.84 64.71 96.73 64.77 92.68 65.12 C 92.34 73.50 95.61 81.53 95.08 89.92 C 94.25 93.49 91.40 96.04 89.09 98.70 C 87.23 97.95 85.39 97.17 83.49 96.54 C 85.12 94.31 87.50 92.09 87.24 89.07 C 86.93 81.36 84.84 73.70 85.86 65.95 C 86.93 56.83 93.16 48.30 101.76 44.93 Z" />
<path fill="#233f62" d=" M 44.91 45.73 C 47.54 44.99 50.25 44.48 52.99 44.57 C 59.28 44.65 65.58 44.44 71.86 44.97 C 71.77 46.18 71.68 47.38 71.59 48.59 C 63.14 48.93 54.68 48.80 46.23 48.67 C 45.79 47.69 45.35 46.71 44.91 45.73 Z" />
<path fill="#f4dfa5" d=" M 104.82 63.80 C 108.99 62.86 112.61 60.47 116.17 58.21 C 119.18 61.68 122.66 65.24 123.26 70.02 C 124.27 77.43 122.42 84.99 119.52 91.79 C 118.27 93.71 116.47 95.24 115.43 97.31 C 114.83 100.52 115.78 103.75 116.73 106.80 C 115.58 107.67 114.43 108.54 113.27 109.41 C 112.40 106.06 112.24 100.88 108.00 100.12 C 104.84 101.48 103.86 105.14 102.74 108.07 C 101.50 108.26 100.27 108.46 99.04 108.69 C 100.54 105.11 102.43 101.10 100.99 97.20 C 99.52 94.41 97.16 92.25 95.08 89.92 C 95.61 81.53 92.34 73.50 92.68 65.12 C 96.73 64.77 100.84 64.71 104.82 63.80 Z" />
<path fill="#7c5d2d" d=" M 96.34 68.50 C 99.62 67.68 103.14 67.78 106.40 68.67 C 107.95 71.11 105.90 75.01 102.94 75.01 C 100.33 75.26 96.89 75.96 94.97 73.71 C 94.30 71.92 93.70 68.86 96.34 68.50 Z" />
<path fill="#7c5d2d" d=" M 109.12 68.51 C 113.30 67.85 117.55 67.87 121.74 68.46 C 121.79 70.44 121.82 72.44 121.47 74.41 C 118.57 75.68 115.21 75.60 112.18 74.87 C 109.43 74.06 109.61 70.77 109.12 68.51 Z" />
<path fill="#f4dfa5" d=" M 95.95 69.88 C 99.13 69.72 102.33 69.72 105.51 69.94 C 104.82 71.12 104.38 72.50 103.36 73.44 C 101.10 73.97 98.76 73.70 96.46 73.71 C 96.29 72.43 96.12 71.15 95.95 69.88 Z" />
<path fill="#f4dfa5" d=" M 110.67 70.04 C 113.81 69.75 116.98 69.74 120.14 69.90 C 120.05 71.22 119.96 72.55 119.87 73.88 C 117.53 73.72 115.09 73.95 112.85 73.17 C 112.06 72.17 111.37 71.10 110.67 70.04 Z" />
<path fill="#7c5d2d" d=" M 77.31 95.76 C 79.38 95.82 81.50 95.89 83.49 96.54 C 85.39 97.17 87.23 97.95 89.09 98.70 C 86.35 99.48 83.36 100.90 80.55 99.60 C 78.79 99.06 78.35 97.06 77.31 95.76 Z" />
<path fill="#b1f9ed" d=" M 102.74 108.07 C 103.86 105.14 104.84 101.48 108.00 100.12 C 112.24 100.88 112.40 106.06 113.27 109.41 C 112.59 117.65 109.31 125.54 109.97 133.92 C 107.36 133.92 104.76 133.79 102.16 133.73 C 102.01 133.16 101.73 132.02 101.59 131.45 C 103.03 132.00 104.46 132.54 105.90 133.09 C 107.39 124.45 102.30 116.63 102.74 108.07 Z" />
<path fill="#b1f9ed" d=" M 78.52 110.52 C 81.82 107.65 84.88 104.10 89.03 102.53 C 92.36 101.51 95.18 106.01 92.88 108.50 C 89.40 113.13 85.58 117.67 80.53 120.63 C 79.38 120.04 78.25 119.42 77.13 118.77 C 76.72 118.55 75.89 118.10 75.48 117.88 C 75.96 115.25 76.24 112.28 78.52 110.52 Z" />
<path fill="#b1f9ed" d=" M 122.28 107.81 C 122.88 105.90 123.06 103.47 125.10 102.48 C 126.80 102.39 128.47 102.99 129.84 103.98 C 133.32 107.17 137.64 109.93 139.67 114.34 C 140.88 117.65 137.20 119.15 135.11 120.78 C 130.12 117.21 126.34 112.34 122.28 107.81 Z" />
<path fill="#d0923a" d=" M 129.84 103.98 C 140.78 106.78 147.17 121.39 140.44 130.89 C 142.85 132.78 147.15 134.60 145.67 138.40 C 143.11 145.94 137.77 152.13 134.42 159.28 C 131.81 169.15 131.14 179.41 129.42 189.45 C 128.94 192.31 128.60 195.20 128.39 198.10 C 128.09 197.88 127.49 197.45 127.19 197.23 C 126.15 189.15 129.33 181.44 130.38 173.55 C 131.34 166.73 131.83 159.79 134.02 153.22 C 138.33 149.46 142.04 144.80 143.27 139.08 C 143.51 137.58 143.67 136.06 143.85 134.55 C 141.41 134.12 138.99 133.63 136.53 133.36 C 137.07 132.38 137.62 131.39 138.17 130.41 C 139.55 128.57 141.32 126.97 142.28 124.85 C 142.62 122.51 141.41 120.26 140.92 118.02 C 139.70 121.13 138.87 124.37 137.73 127.51 C 137.03 125.20 136.03 123.00 135.11 120.78 C 137.20 119.15 140.88 117.65 139.67 114.34 C 137.64 109.93 133.32 107.17 129.84 103.98 Z" />
<path fill="#fafdfb" d=" M 113.27 109.41 C 114.43 108.54 115.58 107.67 116.73 106.80 C 117.01 107.34 117.55 108.42 117.82 108.96 C 119.20 111.81 120.36 114.77 121.42 117.76 C 117.43 121.39 116.90 126.93 115.55 131.83 C 113.96 133.12 111.98 133.75 109.97 133.92 C 109.31 125.54 112.59 117.65 113.27 109.41 Z" />
<path fill="#fafdfb" d=" M 99.04 108.69 C 100.27 108.46 101.50 108.26 102.74 108.07 C 102.30 116.63 107.39 124.45 105.90 133.09 C 104.46 132.54 103.03 132.00 101.59 131.45 C 100.34 126.63 99.50 121.29 95.54 117.82 C 96.47 115.24 97.38 112.66 98.28 110.07 C 98.47 109.73 98.85 109.03 99.04 108.69 Z" />
<path fill="#435358" d=" M 117.82 108.96 C 119.31 108.58 120.80 108.21 122.28 107.81 C 126.34 112.34 130.12 117.21 135.11 120.78 C 136.03 123.00 137.03 125.20 137.73 127.51 C 137.95 128.46 138.10 129.43 138.17 130.41 C 137.62 131.39 137.07 132.38 136.53 133.36 C 129.54 132.94 122.23 134.62 115.55 131.83 C 116.90 126.93 117.43 121.39 121.42 117.76 C 120.36 114.77 119.20 111.81 117.82 108.96 Z" />
<path fill="#435358" d=" M 80.53 120.63 C 85.58 117.67 89.40 113.13 92.88 108.50 C 94.70 108.75 96.52 109.00 98.35 109.22 L 98.28 110.07 C 97.38 112.66 96.47 115.24 95.54 117.82 C 99.50 121.29 100.34 126.63 101.59 131.45 C 101.73 132.02 102.01 133.16 102.16 133.73 C 94.26 133.57 86.37 133.71 78.48 133.43 C 78.53 132.70 78.64 131.25 78.70 130.52 C 78.79 129.77 78.97 128.28 79.07 127.54 C 79.47 125.22 79.96 122.91 80.53 120.63 Z" />
<path fill="#7c5d2d" d=" M 74.70 117.49 L 75.48 117.88 C 75.89 118.10 76.72 118.55 77.13 118.77 C 76.89 120.71 76.61 122.64 76.35 124.57 C 77.26 125.56 78.16 126.54 79.07 127.54 C 78.97 128.28 78.79 129.77 78.70 130.52 C 76.09 129.21 73.33 127.19 73.16 124.00 C 73.31 121.76 74.11 119.64 74.70 117.49 Z" />
<path fill="#d0923a" d=" M 77.13 118.77 C 78.25 119.42 79.38 120.04 80.53 120.63 C 79.96 122.91 79.47 125.22 79.07 127.54 C 78.16 126.54 77.26 125.56 76.35 124.57 C 76.61 122.64 76.89 120.71 77.13 118.77 Z" />
<path fill="#7c5d2d" d=" M 137.73 127.51 C 138.87 124.37 139.70 121.13 140.92 118.02 C 141.41 120.26 142.62 122.51 142.28 124.85 C 141.32 126.97 139.55 128.57 138.17 130.41 C 138.10 129.43 137.95 128.46 137.73 127.51 Z" />
<path fill="#435358" d=" M 107.12 121.53 C 111.16 124.04 108.90 129.63 108.97 133.50 C 104.75 131.17 107.15 125.37 107.12 121.53 Z" />
<path fill="#77f9ab" d=" M 109.97 133.92 C 111.98 133.75 113.96 133.12 115.55 131.83 C 122.23 134.62 129.54 132.94 136.53 133.36 C 138.99 133.63 141.41 134.12 143.85 134.55 C 143.67 136.06 143.51 137.58 143.27 139.08 C 132.74 138.46 122.20 138.80 111.66 138.89 C 98.70 138.54 85.73 138.79 72.77 138.83 C 72.38 138.83 71.61 138.83 71.23 138.83 C 71.30 137.01 71.35 135.19 71.40 133.37 C 73.76 133.39 76.12 133.38 78.48 133.43 C 86.37 133.71 94.26 133.57 102.16 133.73 C 104.76 133.79 107.36 133.92 109.97 133.92 Z" />
<path fill="#33a760" d=" M 72.77 138.83 C 85.73 138.79 98.70 138.54 111.66 138.89 C 122.20 138.80 132.74 138.46 143.27 139.08 C 142.04 144.80 138.33 149.46 134.02 153.22 C 134.48 150.47 134.75 147.70 135.05 144.93 C 117.23 144.39 99.39 144.59 81.56 144.83 C 81.73 148.16 81.89 151.50 82.42 154.80 C 79.07 153.54 77.62 150.10 75.76 147.33 C 74.04 144.79 73.17 141.84 72.77 138.83 Z" />
<path fill="#77f9ab" d=" M 81.56 144.83 C 99.39 144.59 117.23 144.39 135.05 144.93 C 134.75 147.70 134.48 150.47 134.02 153.22 C 131.83 159.79 131.34 166.73 130.38 173.55 C 129.33 181.44 126.15 189.15 127.19 197.23 C 127.49 197.45 128.09 197.88 128.39 198.10 C 128.77 198.35 129.54 198.87 129.92 199.13 C 121.63 202.43 112.64 200.89 103.97 201.34 C 99.88 201.41 95.74 201.96 91.68 201.22 C 90.85 200.25 90.42 199.02 90.13 197.81 C 87.45 183.97 87.23 169.59 82.80 156.14 C 82.70 155.80 82.51 155.13 82.42 154.80 C 81.89 151.50 81.73 148.16 81.56 144.83 Z" />
<path fill="#adf4c1" d=" M 82.80 156.14 C 87.23 169.59 87.45 183.97 90.13 197.81 C 90.42 199.02 90.85 200.25 91.68 201.22 C 95.74 201.96 99.88 201.41 103.97 201.34 C 112.64 200.89 121.63 202.43 129.92 199.13 C 131.95 200.78 133.78 202.64 135.52 204.58 C 125.74 206.17 115.84 204.95 106.00 205.27 C 97.71 205.09 89.11 206.48 81.16 203.45 C 83.50 201.23 85.82 198.99 88.24 196.85 C 87.33 183.16 84.38 169.73 82.80 156.14 Z" />
<path fill="#77f9ab" d=" M 79.11 210.57 C 79.32 208.07 79.93 205.64 81.16 203.45 C 89.11 206.48 97.71 205.09 106.00 205.27 C 115.84 204.95 125.74 206.17 135.52 204.58 L 136.36 204.47 C 136.48 206.52 136.63 208.57 136.79 210.63 C 132.21 211.03 127.60 211.37 123.00 211.06 C 116.33 210.59 109.66 211.53 103.00 211.10 C 95.04 210.53 87.07 211.03 79.11 210.57 Z" />
</svg>
